<svg xmlns="http://www.w3.org/2000/svg" width="512" height="512" viewBox="0 0 512 512" role="img" aria-labelledby="title3 desc3">
  <title id="title3">Sonarflow mono</title>
  <desc id="desc3">Monochrome mark for Sonarflow</desc>
  <rect width="100%" height="100%" rx="48" fill="white"/>
  <g transform="translate(0,24)" fill="#111827">
    <circle cx="256" cy="208" r="16"/>
    <path d="M256 244c34 0 64 12 86 32 22 20 36 44 46 60-28-22-66-38-114-38-44 0-80 14-108 40 6-18 22-48 64-74 28-18 36-20 36-20z"/>
    <path d="M182 156c26-26 70-32 104-8 32 22 46 60 36 94-6 24-26 42-50 50-28 10-60 6-84-12 26-20 44-52 50-86 6-30-6-56-62-88z"/>
  </g>
</svg>
